<svg id="Layer_1" data-name="Layer 1" xmlns="http://www.w3.org/2000/svg" viewBox="0 0 32 32"><defs><style>.cls-1{fill:#399d86;}.cls-2{fill:#efd7ac;}.cls-3,.cls-4{fill:#d0a92a;}.cls-3{stroke:#c0872d;stroke-linecap:round;stroke-linejoin:round;stroke-width:0.5px;}.cls-5{fill:#c0872d;}.cls-6{fill:#d2453f;}.cls-7{fill:#e6675a;}.cls-8{fill:#114f5a;}</style></defs><title>Me!</title><path id="Body" class="cls-1" d="M24.39,31.19c0-3.07-3.57-7.21-8-7.21s-8,4.14-8,7.21"/><path id="Head" class="cls-2" d="M18.59,24c-.75,1-2.53,2.13-4.79.05C13.6,21.58,8,21.92,8,14.91H8a7.37,7.37,0,0,1,7.45-7.45h2.33a7.48,7.48,0,0,1,7.45,7.45h0C25.56,22.75,19,21.41,18.59,24Z"/><path id="Hair" class="cls-3" d="M20.12,8.56c0,.25.17.29.25.5,0,0,5.59,4.24,3.23,9.89-1.35,3.24-5.22,2.06-4.95,5.29,0,0,2.2,4.4,8.22,2.83.82-.21,2.11-1.24,2.13-1.66A2.21,2.21,0,0,1,26.55,24c-.42-.94-.37-5.31-.32-6.33a26,26,0,0,0-.33-7.07,5.11,5.11,0,0,0-3-3.53,2.54,2.54,0,0,0-2.44.4.77.77,0,0,0-.22.31l-8.47-.55c-2,0-3.85,2.1-4.5,3.64-.84,2-.45,4.92-.33,7.07.06,1,.11,5.39-.32,6.33A2.21,2.21,0,0,1,4.1,25.69c0,.42,1.31,1.44,2.13,1.66,5.55,1.49,7.61-2.9,7.61-2.9.34-3.5-3.4-4-4.4-5.77-1.95-3.49.27-8.31,3.16-9.1Z"/><path class="cls-4" d="M12.34,10.86a5.92,5.92,0,0,1-2.87-.61,2.16,2.16,0,0,1-.83-2.31c.12-.65.79-2.75,4.4-3.38a1.11,1.11,0,0,0,.15.7,1.32,1.32,0,0,0,1.13.63A1.52,1.52,0,0,0,15,5.7,5.37,5.37,0,0,1,17.54,5a3.53,3.53,0,0,1,2.6,1.09,2.31,2.31,0,0,1,.42,2,1.41,1.41,0,0,1-.62,1,23.48,23.48,0,0,1-7.59,1.74Z"/><path class="cls-5" d="M12.78,4.86a1.38,1.38,0,0,0,.18.52,1.57,1.57,0,0,0,1.35.75,1.77,1.77,0,0,0,.84-.21,5.12,5.12,0,0,1,2.39-.66,3.29,3.29,0,0,1,2.42,1A2.07,2.07,0,0,1,20.32,8a1.2,1.2,0,0,1-.47.85,23.23,23.23,0,0,1-7.5,1.72A5.68,5.68,0,0,1,9.59,10a1.91,1.91,0,0,1-.71-2c.11-.59.71-2.46,3.9-3.13m.61-.61h0Zm0,0c-5.68.79-5.83,5.22-4,6.22a6.19,6.19,0,0,0,3,.64A23.19,23.19,0,0,0,20,9.36c.85-.35,1.23-2.45.29-3.43a3.79,3.79,0,0,0-2.78-1.17,5.6,5.6,0,0,0-2.62.72,1.28,1.28,0,0,1-.6.16,1,1,0,0,1-.93-1.38Z"/><path id="Glasses" class="cls-6" d="M25.06,15.63a4.82,4.82,0,0,0-1.7,1.69,5,5,0,0,1-1.14,1.28,2.94,2.94,0,0,1-4.4-1,4.85,4.85,0,0,1-.27-.61.94.94,0,0,0-.9-.7,1,1,0,0,0-.95.66A5.53,5.53,0,0,1,15.18,18a2.89,2.89,0,0,1-4,.76l-.35-.23c-.91-1-1.46-2.29-2.72-3-.06-.71.22-1.06,1.07-1.29a6.64,6.64,0,0,1,2.63-.21,9.13,9.13,0,0,1,3,.7,5.22,5.22,0,0,0,3,.13c.9-.1,1.68-.62,2.59-.73a10.18,10.18,0,0,1,3.07,0,3.51,3.51,0,0,1,1.21.43C25.11,14.82,25.34,15.14,25.06,15.63Zm-3.55-1.17a5.12,5.12,0,0,0-3,1c-.34.24-.68.54-.59,1a2.6,2.6,0,0,0,1.64,2.14,2.35,2.35,0,0,0,2.49-.44,3.09,3.09,0,0,0,1.14-2.77.94.94,0,0,0-.69-.73A2.55,2.55,0,0,0,21.52,14.46Zm-9.72,0c-1.25,0-1.77.4-1.79,1.55a2.76,2.76,0,0,0,.6,1.41,2.51,2.51,0,0,0,2.56,1.23,2.57,2.57,0,0,0,2-1.83,1.17,1.17,0,0,0-.55-1.45A5.16,5.16,0,0,0,11.8,14.48Z"/><path id="Mouth" class="cls-7" d="M18.19,19.35a1.44,1.44,0,0,1-1.34,1.31,1.63,1.63,0,0,1-1.68-1.19A1.8,1.8,0,0,0,18.19,19.35Z"/><path id="Nose" class="cls-5" d="M17.37,18.12c-.82-.79-.83-.79-1.47.1-.09-.45,0-.65.27-.88a.69.69,0,0,1,.81-.09A.7.7,0,0,1,17.37,18.12Z"/><path id="Left_Eye" data-name="Left Eye" class="cls-8" d="M22.3,16.72a.46.46,0,0,1-.64.17c-.4-.58-.7-.85-1.2-.83s-.91.24-1.19,1.07a1.53,1.53,0,0,1,1.29-.61,1.36,1.36,0,0,1,1,.69S22.24,17.2,22.3,16.72Z"/><path id="Right_Eye" data-name="Right Eye" class="cls-8" d="M10.89,16.72a.46.46,0,0,0,.64.17c.4-.58.7-.85,1.2-.83s.91.24,1.19,1.07a1.53,1.53,0,0,0-1.29-.61,1.36,1.36,0,0,0-1,.69S11,17.2,10.89,16.72Z"/></svg>